<svg version="1.1" xmlns="http://www.w3.org/2000/svg" width="740" height="288"><desc>Created with Highstock 1.3.9</desc><defs><clipPath id="highcharts-1"><rect fill="none" x="0" y="0" width="600" height="188"></rect></clipPath></defs><rect rx="5" ry="5" fill="none" x="0" y="0" width="740" height="288"></rect><g class="highcharts-grid" zIndex="1"></g><g class="highcharts-grid" zIndex="1"><path fill="none" d="M 60 67.5 L 660 67.5" stroke="#eaeaea" stroke-width="1" zIndex="1" opacity="1"></path><path fill="none" d="M 60 114.5 L 660 114.5" stroke="#eaeaea" stroke-width="1" zIndex="1" opacity="1"></path><path fill="none" d="M 60 161.5 L 660 161.5" stroke="#eaeaea" stroke-width="1" zIndex="1" opacity="1"></path><path fill="none" d="M 60 208.5 L 660 208.5" stroke="#eaeaea" stroke-width="1" zIndex="1" opacity="1"></path><path fill="none" d="M 60 19.5 L 660 19.5" stroke="#eaeaea" stroke-width="1" zIndex="1" opacity="1"></path></g><g class="highcharts-grid" zIndex="1"><path fill="none" d="M 60 67.5 L 660 67.5" stroke="#ECEFF0" stroke-width="1" zIndex="1" opacity="1"></path><path fill="none" d="M 60 114.5 L 660 114.5" stroke="#ECEFF0" stroke-width="1" zIndex="1" opacity="1"></path><path fill="none" d="M 60 161.5 L 660 161.5" stroke="#ECEFF0" stroke-width="1" zIndex="1" opacity="1"></path><path fill="none" d="M 60 208.5 L 660 208.5" stroke="#ECEFF0" stroke-width="1" zIndex="1" opacity="1"></path><path fill="none" d="M 60 19.5 L 660 19.5" stroke="#ECEFF0" stroke-width="1" zIndex="1" opacity="1"></path></g><g class="highcharts-axis" zIndex="2"><path fill="none" d="M 116.5 208 L 116.5 213" stroke="#C0D0E0" stroke-width="1" opacity="1"></path><path fill="none" d="M 206.5 208 L 206.5 213" stroke="#C0D0E0" stroke-width="1" opacity="1"></path><path fill="none" d="M 295.5 208 L 295.5 213" stroke="#C0D0E0" stroke-width="1" opacity="1"></path><path fill="none" d="M 385.5 208 L 385.5 213" stroke="#C0D0E0" stroke-width="1" opacity="1"></path><path fill="none" d="M 474.5 208 L 474.5 213" stroke="#C0D0E0" stroke-width="1" opacity="1"></path><path fill="none" d="M 564.5 208 L 564.5 213" stroke="#C0D0E0" stroke-width="1" opacity="1"></path><path fill="none" d="M 653.5 208 L 653.5 213" stroke="#C0D0E0" stroke-width="1" opacity="1"></path><path fill="none" d="M 60 208.5 L 660 208.5" stroke="#ECEFF0" stroke-width="1" zIndex="7" visibility="visible"></path></g><g class="highcharts-axis" zIndex="2"><text x="16.3125" y="114" style="font-family:&quot;Lucida Grande&quot;, &quot;Lucida Sans Unicode&quot;, Verdana, Arial, Helvetica, sans-serif;font-size:12px;color:#4d759e;font-weight:bold;fill:#4d759e;" zIndex="7" text-anchor="middle" transform="translate(0,0) rotate(270 16.3125 114)" visibility="visible"><tspan x="16.3125">Gain</tspan></text></g><g class="highcharts-axis" zIndex="2"><text x="684.125" y="114" style="font-family:&quot;Lucida Grande&quot;, &quot;Lucida Sans Unicode&quot;, Verdana, Arial, Helvetica, sans-serif;font-size:12px;color:#4572A7;font-weight:bold;fill:#4572A7;" zIndex="7" text-anchor="middle" transform="translate(0,0) rotate(90 684.125 114)" visibility="visible"><tspan x="684.125">Copiers</tspan></text></g><g class="highcharts-series-group" zIndex="3"><g class="highcharts-series" visibility="visible" zIndex="0.1" transform="translate(60,20) scale(1 1)" clip-path="url(#highcharts-1)"><path fill="#e3eff5" d="M 12.27621483375959 141 L 18.67007672634271 143.6696 L 25.063938618925828 140.75560000000002 L 31.45780051150895 135.9804 L 37.85166240409207 134.9464 L 44.245524296675185 137.8792 L 57.03324808184143 138.274 L 63.427109974424546 140.812 L 69.82097186700767 145.1736 L 76.21483375959079 132.0888 L 82.6086956521739 132.0324 L 89.00255754475702 128.7424 L 101.79028132992326 125.49000000000001 L 108.18414322250639 126.7872 L 114.57800511508951 132.2956 L 120.97186700767263 125.7156 L 127.36572890025575 117.218 L 133.75959079283888 120.6396 L 146.5473145780051 120.71480000000001 L 152.94117647058823 117.0112 L 159.33503836317135 120.90280000000001 L 165.72890025575447 113.6648 L 172.12276214833759 113.51440000000001 L 178.5166240409207 112.9128 L 191.30434782608694 112.57440000000001 L 197.69820971867006 107.9684 L 204.09207161125317 111.672 L 210.4859335038363 113.6648 L 216.8797953964194 114.4356 L 223.27365728900253 106.27640000000001 L 236.0613810741688 105.468 L 242.4552429667519 109.0212 L 248.84910485933503 111.3148 L 255.24296675191815 113.5896 L 261.63682864450124 109.0776 L 268.03069053708435 106.06960000000001 L 280.81841432225065 104.904 L 287.21227621483376 109.82960000000001 L 293.6061381074169 103.85119999999999 L 300 103.024 L 306.3938618925831 105.03560000000002 L 312.78772378516624 98.62480000000001 L 325.57544757033247 98.24880000000002 L 331.9693094629156 100.9748 L 338.3631713554987 103.0616 L 344.7570332480818 107.3104 L 351.15089514066494 105.4116 L 357.54475703324806 105.33640000000001 L 370.3324808184143 105.76880000000001 L 376.7263427109974 100.63640000000001 L 383.12020460358053 105.374 L 389.51406649616365 95.3348 L 395.90792838874677 95.67320000000001 L 402.3017902813299 94.0376 L 415.0895140664961 94.26320000000001 L 421.48337595907924 89.8452 L 427.87723785166236 85.0136 L 434.2710997442455 88.05920000000002 L 440.6649616368286 88.078 L 447.0588235294117 86.762 L 459.84654731457795 86.3108 L 466.24040920716106 83.82920000000001 L 472.6342710997442 88.1344 L 479.02813299232736 84.50600000000001 L 485.4219948849105 84.52480000000001 L 491.8158567774936 70.66920000000002 L 504.60358056265983 68.07480000000001 L 510.99744245524295 69.9548 L 517.391304347826 66.90920000000001 L 523.7851662404091 59.93440000000001 L 530.1790281329922 57.22720000000001 L 536.5728900255754 67.398 L 549.3606138107416 70.97000000000001 L 555.7544757033247 65.23600000000002 L 562.1483375959078 62.11519999999999 L 568.542199488491 61.77680000000001 L 574.9360613810742 63.73200000000001 L 581.3299232736573 45.45840000000001 L 594.1176470588235 46.56760000000003 L 594.1176470588235 145.1736 L 12.27621483375959 145.1736" zIndex="0"></path><path fill="none" d="M 12.27621483375959 141 L 18.67007672634271 143.6696 L 25.063938618925828 140.75560000000002 L 31.45780051150895 135.9804 L 37.85166240409207 134.9464 L 44.245524296675185 137.8792 L 57.03324808184143 138.274 L 63.427109974424546 140.812 L 69.82097186700767 145.1736 L 76.21483375959079 132.0888 L 82.6086956521739 132.0324 L 89.00255754475702 128.7424 L 101.79028132992326 125.49000000000001 L 108.18414322250639 126.7872 L 114.57800511508951 132.2956 L 120.97186700767263 125.7156 L 127.36572890025575 117.218 L 133.75959079283888 120.6396 L 146.5473145780051 120.71480000000001 L 152.94117647058823 117.0112 L 159.33503836317135 120.90280000000001 L 165.72890025575447 113.6648 L 172.12276214833759 113.51440000000001 L 178.5166240409207 112.9128 L 191.30434782608694 112.57440000000001 L 197.69820971867006 107.9684 L 204.09207161125317 111.672 L 210.4859335038363 113.6648 L 216.8797953964194 114.4356 L 223.27365728900253 106.27640000000001 L 236.0613810741688 105.468 L 242.4552429667519 109.0212 L 248.84910485933503 111.3148 L 255.24296675191815 113.5896 L 261.63682864450124 109.0776 L 268.03069053708435 106.06960000000001 L 280.81841432225065 104.904 L 287.21227621483376 109.82960000000001 L 293.6061381074169 103.85119999999999 L 300 103.024 L 306.3938618925831 105.03560000000002 L 312.78772378516624 98.62480000000001 L 325.57544757033247 98.24880000000002 L 331.9693094629156 100.9748 L 338.3631713554987 103.0616 L 344.7570332480818 107.3104 L 351.15089514066494 105.4116 L 357.54475703324806 105.33640000000001 L 370.3324808184143 105.76880000000001 L 376.7263427109974 100.63640000000001 L 383.12020460358053 105.374 L 389.51406649616365 95.3348 L 395.90792838874677 95.67320000000001 L 402.3017902813299 94.0376 L 415.0895140664961 94.26320000000001 L 421.48337595907924 89.8452 L 427.87723785166236 85.0136 L 434.2710997442455 88.05920000000002 L 440.6649616368286 88.078 L 447.0588235294117 86.762 L 459.84654731457795 86.3108 L 466.24040920716106 83.82920000000001 L 472.6342710997442 88.1344 L 479.02813299232736 84.50600000000001 L 485.4219948849105 84.52480000000001 L 491.8158567774936 70.66920000000002 L 504.60358056265983 68.07480000000001 L 510.99744245524295 69.9548 L 517.391304347826 66.90920000000001 L 523.7851662404091 59.93440000000001 L 530.1790281329922 57.22720000000001 L 536.5728900255754 67.398 L 549.3606138107416 70.97000000000001 L 555.7544757033247 65.23600000000002 L 562.1483375959078 62.11519999999999 L 568.542199488491 61.77680000000001 L 574.9360613810742 63.73200000000001 L 581.3299232736573 45.45840000000001 L 594.1176470588235 46.56760000000003" stroke="#3ea5da" stroke-width="2" zIndex="1" stroke-linejoin="round" stroke-linecap="round"></path><path fill="none" d="M 2.2762148337595907 141 L 12.27621483375959 141 L 18.67007672634271 143.6696 L 25.063938618925828 140.75560000000002 L 31.45780051150895 135.9804 L 37.85166240409207 134.9464 L 44.245524296675185 137.8792 L 57.03324808184143 138.274 L 63.427109974424546 140.812 L 69.82097186700767 145.1736 L 76.21483375959079 132.0888 L 82.6086956521739 132.0324 L 89.00255754475702 128.7424 L 101.79028132992326 125.49000000000001 L 108.18414322250639 126.7872 L 114.57800511508951 132.2956 L 120.97186700767263 125.7156 L 127.36572890025575 117.218 L 133.75959079283888 120.6396 L 146.5473145780051 120.71480000000001 L 152.94117647058823 117.0112 L 159.33503836317135 120.90280000000001 L 165.72890025575447 113.6648 L 172.12276214833759 113.51440000000001 L 178.5166240409207 112.9128 L 191.30434782608694 112.57440000000001 L 197.69820971867006 107.9684 L 204.09207161125317 111.672 L 210.4859335038363 113.6648 L 216.8797953964194 114.4356 L 223.27365728900253 106.27640000000001 L 236.0613810741688 105.468 L 242.4552429667519 109.0212 L 248.84910485933503 111.3148 L 255.24296675191815 113.5896 L 261.63682864450124 109.0776 L 268.03069053708435 106.06960000000001 L 280.81841432225065 104.904 L 287.21227621483376 109.82960000000001 L 293.6061381074169 103.85119999999999 L 300 103.024 L 306.3938618925831 105.03560000000002 L 312.78772378516624 98.62480000000001 L 325.57544757033247 98.24880000000002 L 331.9693094629156 100.9748 L 338.3631713554987 103.0616 L 344.7570332480818 107.3104 L 351.15089514066494 105.4116 L 357.54475703324806 105.33640000000001 L 370.3324808184143 105.76880000000001 L 376.7263427109974 100.63640000000001 L 383.12020460358053 105.374 L 389.51406649616365 95.3348 L 395.90792838874677 95.67320000000001 L 402.3017902813299 94.0376 L 415.0895140664961 94.26320000000001 L 421.48337595907924 89.8452 L 427.87723785166236 85.0136 L 434.2710997442455 88.05920000000002 L 440.6649616368286 88.078 L 447.0588235294117 86.762 L 459.84654731457795 86.3108 L 466.24040920716106 83.82920000000001 L 472.6342710997442 88.1344 L 479.02813299232736 84.50600000000001 L 485.4219948849105 84.52480000000001 L 491.8158567774936 70.66920000000002 L 504.60358056265983 68.07480000000001 L 510.99744245524295 69.9548 L 517.391304347826 66.90920000000001 L 523.7851662404091 59.93440000000001 L 530.1790281329922 57.22720000000001 L 536.5728900255754 67.398 L 549.3606138107416 70.97000000000001 L 555.7544757033247 65.23600000000002 L 562.1483375959078 62.11519999999999 L 568.542199488491 61.77680000000001 L 574.9360613810742 63.73200000000001 L 581.3299232736573 45.45840000000001 L 594.1176470588235 46.56760000000003 L 604.1176470588235 46.56760000000003" stroke-linejoin="round" visibility="visible" stroke-opacity="0.0001" stroke="rgb(192,192,192)" stroke-width="22" zIndex="2" class=" highcharts-tracker" style=""></path></g><g class="highcharts-markers highcharts-tracker" visibility="visible" zIndex="0.1" transform="translate(60,20) scale(1 1)" clip-path="none" style=""><path fill="#2f7ed8" d="M 447.0588235294117 80.762 C 455.05082352941173 80.762 455.05082352941173 92.762 447.0588235294117 92.762 C 439.0668235294117 92.762 439.0668235294117 80.762 447.0588235294117 80.762 Z" stroke="#FFFFFF" stroke-width="1" visibility="hidden"></path></g><g class="highcharts-series" visibility="hidden" zIndex="0.1" transform="translate(60,20) scale(1 1)" clip-path="url(#highcharts-1)"><path fill="none" d="M 12.27621483375959 141 L 18.67007672634271 140.4736 L 25.063938618925828 139.81560000000002 L 31.45780051150895 139.872 L 37.85166240409207 139.8908 L 44.245524296675185 139.6652 L 57.03324808184143 139.6652 L 63.427109974424546 139.0448 L 69.82097186700767 139.0636 L 76.21483375959079 138.6124 L 82.6086956521739 138.6312 L 89.00255754475702 138.51839999999999 L 101.79028132992326 138.51839999999999 L 108.18414322250639 138.49960000000002 L 114.57800511508951 138.51839999999999 L 120.97186700767263 137.1836 L 127.36572890025575 135.7548 L 133.75959079283888 135.7736 L 146.5473145780051 135.7736 L 152.94117647058823 134.4764 L 159.33503836317135 134.4952 L 165.72890025575447 133.12279999999998 L 172.12276214833759 133.9876 L 178.5166240409207 131.6188 L 191.30434782608694 131.6188 L 197.69820971867006 131.3368 L 204.09207161125317 131.3556 L 210.4859335038363 131.4308 L 216.8797953964194 131.4496 L 223.27365728900253 131.0172 L 236.0613810741688 131.0172 L 242.4552429667519 131.036 L 248.84910485933503 131.0736 L 255.24296675191815 130.6412 L 261.63682864450124 129.47560000000001 L 268.03069053708435 129.49439999999998 L 280.81841432225065 129.49439999999998 L 287.21227621483376 129.5132 L 293.6061381074169 128.874 L 300 128.9304 L 306.3938618925831 128.96800000000002 L 312.78772378516624 115.0184 L 325.57544757033247 115.0184 L 331.9693094629156 115.07480000000001 L 338.3631713554987 115.11240000000001 L 344.7570332480818 115.244 L 351.15089514066494 115.28160000000001 L 357.54475703324806 115.33800000000001 L 370.3324808184143 115.33800000000001 L 376.7263427109974 115.05600000000001 L 383.12020460358053 114.66120000000001 L 389.51406649616365 111.93520000000001 L 395.90792838874677 98.66240000000002 L 402.3017902813299 98.68119999999999 L 415.0895140664961 98.68119999999999 L 421.48337595907924 96.7072 L 427.87723785166236 96.72600000000001 L 434.2710997442455 96.8012 L 440.6649616368286 96.83880000000002 L 447.0588235294117 96.85759999999999 L 459.84654731457795 96.85759999999999 L 466.24040920716106 96.8764 L 472.6342710997442 96.8952 L 479.02813299232736 96.98920000000001 L 485.4219948849105 97.00800000000001 L 491.8158567774936 84.2804 L 504.60358056265983 84.2804 L 510.99744245524295 84.2804 L 517.391304347826 82.5508 L 523.7851662404091 79.712 L 530.1790281329922 60.89320000000001 L 536.5728900255754 60.89320000000001 L 549.3606138107416 60.89320000000001 L 555.7544757033247 59.1824 L 562.1483375959078 57.772399999999976 L 568.542199488491 54.614000000000004 L 574.9360613810742 50.384000000000015 L 581.3299232736573 50.1772 L 594.1176470588235 50.1772" stroke="#92C24B" stroke-width="2" zIndex="1" stroke-linejoin="round" stroke-linecap="round"></path><path fill="none" d="M 2.2762148337595907 141 L 12.27621483375959 141 L 18.67007672634271 140.4736 L 25.063938618925828 139.81560000000002 L 31.45780051150895 139.872 L 37.85166240409207 139.8908 L 44.245524296675185 139.6652 L 57.03324808184143 139.6652 L 63.427109974424546 139.0448 L 69.82097186700767 139.0636 L 76.21483375959079 138.6124 L 82.6086956521739 138.6312 L 89.00255754475702 138.51839999999999 L 101.79028132992326 138.51839999999999 L 108.18414322250639 138.49960000000002 L 114.57800511508951 138.51839999999999 L 120.97186700767263 137.1836 L 127.36572890025575 135.7548 L 133.75959079283888 135.7736 L 146.5473145780051 135.7736 L 152.94117647058823 134.4764 L 159.33503836317135 134.4952 L 165.72890025575447 133.12279999999998 L 172.12276214833759 133.9876 L 178.5166240409207 131.6188 L 191.30434782608694 131.6188 L 197.69820971867006 131.3368 L 204.09207161125317 131.3556 L 210.4859335038363 131.4308 L 216.8797953964194 131.4496 L 223.27365728900253 131.0172 L 236.0613810741688 131.0172 L 242.4552429667519 131.036 L 248.84910485933503 131.0736 L 255.24296675191815 130.6412 L 261.63682864450124 129.47560000000001 L 268.03069053708435 129.49439999999998 L 280.81841432225065 129.49439999999998 L 287.21227621483376 129.5132 L 293.6061381074169 128.874 L 300 128.9304 L 306.3938618925831 128.96800000000002 L 312.78772378516624 115.0184 L 325.57544757033247 115.0184 L 331.9693094629156 115.07480000000001 L 338.3631713554987 115.11240000000001 L 344.7570332480818 115.244 L 351.15089514066494 115.28160000000001 L 357.54475703324806 115.33800000000001 L 370.3324808184143 115.33800000000001 L 376.7263427109974 115.05600000000001 L 383.12020460358053 114.66120000000001 L 389.51406649616365 111.93520000000001 L 395.90792838874677 98.66240000000002 L 402.3017902813299 98.68119999999999 L 415.0895140664961 98.68119999999999 L 421.48337595907924 96.7072 L 427.87723785166236 96.72600000000001 L 434.2710997442455 96.8012 L 440.6649616368286 96.83880000000002 L 447.0588235294117 96.85759999999999 L 459.84654731457795 96.85759999999999 L 466.24040920716106 96.8764 L 472.6342710997442 96.8952 L 479.02813299232736 96.98920000000001 L 485.4219948849105 97.00800000000001 L 491.8158567774936 84.2804 L 504.60358056265983 84.2804 L 510.99744245524295 84.2804 L 517.391304347826 82.5508 L 523.7851662404091 79.712 L 530.1790281329922 60.89320000000001 L 536.5728900255754 60.89320000000001 L 549.3606138107416 60.89320000000001 L 555.7544757033247 59.1824 L 562.1483375959078 57.772399999999976 L 568.542199488491 54.614000000000004 L 574.9360613810742 50.384000000000015 L 581.3299232736573 50.1772 L 594.1176470588235 50.1772 L 604.1176470588235 50.1772" stroke-linejoin="round" visibility="hidden" stroke-opacity="0.0001" stroke="rgb(192,192,192)" stroke-width="22" zIndex="2" class=" highcharts-tracker" style=""></path></g><g class="highcharts-markers highcharts-tracker" visibility="hidden" zIndex="0.1" transform="translate(60,20) scale(1 1)" clip-path="none" style=""></g><g class="highcharts-series" visibility="visible" zIndex="0.1" transform="translate(60,20) scale(1 1)" clip-path="url(#highcharts-1)"><path fill="none" d="M 5.88235294117647 188 L 12.27621483375959 188 L 18.67007672634271 188 L 25.063938618925828 188 L 31.45780051150895 188 L 37.85166240409207 188 L 44.245524296675185 188 L 50.63938618925831 188 L 57.03324808184143 188 L 63.427109974424546 188 L 69.82097186700767 188 L 76.21483375959079 188 L 82.6086956521739 188 L 89.00255754475702 188 L 95.39641943734014 188 L 101.79028132992326 188 L 108.18414322250639 188 L 114.57800511508951 188 L 120.97186700767263 188 L 127.36572890025575 188 L 133.75959079283888 188 L 140.153452685422 188 L 146.5473145780051 188 L 152.94117647058823 188 L 159.33503836317135 188 L 165.72890025575447 188 L 172.12276214833759 188 L 178.5166240409207 188 L 184.91048593350382 188 L 191.30434782608694 188 L 197.69820971867006 188 L 204.09207161125317 188 L 210.4859335038363 188 L 216.8797953964194 188 L 223.27365728900253 188 L 229.66751918158565 188 L 236.0613810741688 188 L 242.4552429667519 188 L 248.84910485933503 188 L 255.24296675191815 188 L 261.63682864450124 188 L 268.03069053708435 188 L 274.4245524296675 188 L 280.81841432225065 188 L 287.21227621483376 188 L 293.6061381074169 188 L 300 188 L 306.3938618925831 188 L 312.78772378516624 188 L 319.18158567774935 188 L 325.57544757033247 188 L 331.9693094629156 188 L 338.3631713554987 188 L 344.7570332480818 188 L 351.15089514066494 188 L 357.54475703324806 188 L 363.9386189258312 188 L 370.3324808184143 188 L 376.7263427109974 188 L 383.12020460358053 188 L 389.51406649616365 188 L 395.90792838874677 188 L 402.3017902813299 188 L 408.695652173913 188 L 415.0895140664961 188 L 421.48337595907924 188 L 427.87723785166236 188 L 434.2710997442455 188 L 440.6649616368286 188 L 447.0588235294117 188 L 453.45268542199483 188 L 459.84654731457795 188 L 466.24040920716106 188 L 472.6342710997442 188 L 479.02813299232736 188 L 485.4219948849105 188 L 491.8158567774936 188 L 498.2097186700767 188 L 504.60358056265983 188 L 510.99744245524295 188 L 517.391304347826 188 L 523.7851662404091 188 L 530.1790281329922 188 L 536.5728900255754 188 L 542.9667519181585 188 L 549.3606138107416 188 L 555.7544757033247 188 L 562.1483375959078 188 L 568.542199488491 141 L 574.9360613810742 141 L 581.3299232736573 141 L 587.7237851662404 141 L 594.1176470588235 94" stroke="#AA4643" stroke-width="2" zIndex="1" stroke-linejoin="round" stroke-linecap="round"></path><path fill="none" d="M -4.11764705882353 188 L 5.88235294117647 188 L 12.27621483375959 188 L 18.67007672634271 188 L 25.063938618925828 188 L 31.45780051150895 188 L 37.85166240409207 188 L 44.245524296675185 188 L 50.63938618925831 188 L 57.03324808184143 188 L 63.427109974424546 188 L 69.82097186700767 188 L 76.21483375959079 188 L 82.6086956521739 188 L 89.00255754475702 188 L 95.39641943734014 188 L 101.79028132992326 188 L 108.18414322250639 188 L 114.57800511508951 188 L 120.97186700767263 188 L 127.36572890025575 188 L 133.75959079283888 188 L 140.153452685422 188 L 146.5473145780051 188 L 152.94117647058823 188 L 159.33503836317135 188 L 165.72890025575447 188 L 172.12276214833759 188 L 178.5166240409207 188 L 184.91048593350382 188 L 191.30434782608694 188 L 197.69820971867006 188 L 204.09207161125317 188 L 210.4859335038363 188 L 216.8797953964194 188 L 223.27365728900253 188 L 229.66751918158565 188 L 236.0613810741688 188 L 242.4552429667519 188 L 248.84910485933503 188 L 255.24296675191815 188 L 261.63682864450124 188 L 268.03069053708435 188 L 274.4245524296675 188 L 280.81841432225065 188 L 287.21227621483376 188 L 293.6061381074169 188 L 300 188 L 306.3938618925831 188 L 312.78772378516624 188 L 319.18158567774935 188 L 325.57544757033247 188 L 331.9693094629156 188 L 338.3631713554987 188 L 344.7570332480818 188 L 351.15089514066494 188 L 357.54475703324806 188 L 363.9386189258312 188 L 370.3324808184143 188 L 376.7263427109974 188 L 383.12020460358053 188 L 389.51406649616365 188 L 395.90792838874677 188 L 402.3017902813299 188 L 408.695652173913 188 L 415.0895140664961 188 L 421.48337595907924 188 L 427.87723785166236 188 L 434.2710997442455 188 L 440.6649616368286 188 L 447.0588235294117 188 L 453.45268542199483 188 L 459.84654731457795 188 L 466.24040920716106 188 L 472.6342710997442 188 L 479.02813299232736 188 L 485.4219948849105 188 L 491.8158567774936 188 L 498.2097186700767 188 L 504.60358056265983 188 L 510.99744245524295 188 L 517.391304347826 188 L 523.7851662404091 188 L 530.1790281329922 188 L 536.5728900255754 188 L 542.9667519181585 188 L 549.3606138107416 188 L 555.7544757033247 188 L 562.1483375959078 188 L 568.542199488491 141 L 574.9360613810742 141 L 581.3299232736573 141 L 587.7237851662404 141 L 594.1176470588235 94 L 604.1176470588235 94" stroke-linejoin="round" visibility="visible" stroke-opacity="0.0001" stroke="rgb(192,192,192)" stroke-width="22" zIndex="2" class=" highcharts-tracker" style=""></path></g><g class="highcharts-markers highcharts-tracker" visibility="visible" zIndex="0.1" transform="translate(60,20) scale(1 1)" clip-path="none" style=""></g></g><g class="highcharts-legend" zIndex="7" transform="translate(191,243)"><rect rx="5" ry="5" fill="none" x="0.5" y="0.5" width="356" height="29" stroke="#eaeaea" stroke-width="1" visibility="visible"></rect><g zIndex="1"><g><g class="highcharts-legend-item" zIndex="1" transform="translate(8,3)"><text x="21" y="20" style="font-family:&quot;Lucida Grande&quot;, &quot;Lucida Sans Unicode&quot;, Verdana, Arial, Helvetica, sans-serif;font-size:17;cursor:pointer;color:#274b6d;fill:#274b6d;" text-anchor="start" zIndex="2"><tspan x="21">Total equity</tspan></text><rect rx="2" ry="2" fill="#2f7ed8" x="0" y="9" width="16" height="12" zIndex="3"></rect></g><g class="highcharts-legend-item" zIndex="1" transform="translate(124.890625,3)"><path fill="none" d="M 0 15 L 16 15" stroke="#CCC" stroke-width="2"></path><text x="21" y="20" style="font-family:&quot;Lucida Grande&quot;, &quot;Lucida Sans Unicode&quot;, Verdana, Arial, Helvetica, sans-serif;font-size:17;cursor:pointer;color:#CCC;fill:#CCC;" text-anchor="start" zIndex="2"><tspan x="21">Realized equity</tspan></text></g><g class="highcharts-legend-item" zIndex="1" transform="translate(270.140625,3)"><path fill="none" d="M 0 15 L 16 15" stroke="#AA4643" stroke-width="2"></path><text x="21" y="20" style="font-family:&quot;Lucida Grande&quot;, &quot;Lucida Sans Unicode&quot;, Verdana, Arial, Helvetica, sans-serif;font-size:17;cursor:pointer;color:#274b6d;fill:#274b6d;" text-anchor="start" zIndex="2"><tspan x="21">Copiers</tspan></text></g></g></g></g><g class="highcharts-axis-labels" zIndex="7"><text x="117.03324808184144" y="222" style="font-family:&quot;Lucida Grande&quot;, &quot;Lucida Sans Unicode&quot;, Verdana, Arial, Helvetica, sans-serif;font-size:11px;color:#666;cursor:default;fill:#666;" text-anchor="middle" opacity="1"><tspan x="117.03324808184144">27/10</tspan></text><text x="206.5473145780051" y="222" style="font-family:&quot;Lucida Grande&quot;, &quot;Lucida Sans Unicode&quot;, Verdana, Arial, Helvetica, sans-serif;font-size:11px;color:#666;cursor:default;fill:#666;" text-anchor="middle" opacity="1"><tspan x="206.5473145780051">10/11</tspan></text><text x="296.0613810741688" y="222" style="font-family:&quot;Lucida Grande&quot;, &quot;Lucida Sans Unicode&quot;, Verdana, Arial, Helvetica, sans-serif;font-size:11px;color:#666;cursor:default;fill:#666;" text-anchor="middle" opacity="1"><tspan x="296.0613810741688">24/11</tspan></text><text x="385.57544757033247" y="222" style="font-family:&quot;Lucida Grande&quot;, &quot;Lucida Sans Unicode&quot;, Verdana, Arial, Helvetica, sans-serif;font-size:11px;color:#666;cursor:default;fill:#666;" text-anchor="middle" opacity="1"><tspan x="385.57544757033247">8/12</tspan></text><text x="475.0895140664961" y="222" style="font-family:&quot;Lucida Grande&quot;, &quot;Lucida Sans Unicode&quot;, Verdana, Arial, Helvetica, sans-serif;font-size:11px;color:#666;cursor:default;fill:#666;" text-anchor="middle" opacity="1"><tspan x="475.0895140664961">22/12</tspan></text><text x="564.6035805626598" y="222" style="font-family:&quot;Lucida Grande&quot;, &quot;Lucida Sans Unicode&quot;, Verdana, Arial, Helvetica, sans-serif;font-size:11px;color:#666;cursor:default;fill:#666;" text-anchor="middle" opacity="1"><tspan x="564.6035805626598">5/01</tspan></text><text x="654.1176470588235" y="222" style="font-family:&quot;Lucida Grande&quot;, &quot;Lucida Sans Unicode&quot;, Verdana, Arial, Helvetica, sans-serif;font-size:11px;color:#666;cursor:default;fill:#666;" text-anchor="middle" opacity="1"><tspan x="654.1176470588235">19/01</tspan></text></g><g class="highcharts-axis-labels" zIndex="7"><text x="0" y="-9999" style="font-family:&quot;Lucida Grande&quot;, &quot;Lucida Sans Unicode&quot;, Verdana, Arial, Helvetica, sans-serif;font-size:11px;color:#4572A7;cursor:default;fill:#4572A7;" text-anchor="end"><tspan x="0">-25%</tspan></text><text x="52" y="167" style="font-family:&quot;Lucida Grande&quot;, &quot;Lucida Sans Unicode&quot;, Verdana, Arial, Helvetica, sans-serif;font-size:11px;color:#4572A7;cursor:default;fill:#4572A7;" text-anchor="end" opacity="1"><tspan x="52">0%</tspan></text><text x="52" y="120" style="font-family:&quot;Lucida Grande&quot;, &quot;Lucida Sans Unicode&quot;, Verdana, Arial, Helvetica, sans-serif;font-size:11px;color:#4572A7;cursor:default;fill:#4572A7;" text-anchor="end" opacity="1"><tspan x="52">25%</tspan></text><text x="52" y="73" style="font-family:&quot;Lucida Grande&quot;, &quot;Lucida Sans Unicode&quot;, Verdana, Arial, Helvetica, sans-serif;font-size:11px;color:#4572A7;cursor:default;fill:#4572A7;" text-anchor="end" opacity="1"><tspan x="52">50%</tspan></text><text x="0" y="-9999" style="font-family:&quot;Lucida Grande&quot;, &quot;Lucida Sans Unicode&quot;, Verdana, Arial, Helvetica, sans-serif;font-size:11px;color:#4572A7;cursor:default;fill:#4572A7;" text-anchor="end"><tspan x="0">75%</tspan></text></g><g class="highcharts-axis-labels" zIndex="7"><text x="668" y="214" style="font-family:&quot;Lucida Grande&quot;, &quot;Lucida Sans Unicode&quot;, Verdana, Arial, Helvetica, sans-serif;font-size:11px;color:#4572A7;cursor:default;fill:#4572A7;" text-anchor="start" opacity="1"><tspan x="668">0</tspan></text><text x="668" y="167" style="font-family:&quot;Lucida Grande&quot;, &quot;Lucida Sans Unicode&quot;, Verdana, Arial, Helvetica, sans-serif;font-size:11px;color:#4572A7;cursor:default;fill:#4572A7;" text-anchor="start" opacity="1"><tspan x="668">1</tspan></text><text x="668" y="120" style="font-family:&quot;Lucida Grande&quot;, &quot;Lucida Sans Unicode&quot;, Verdana, Arial, Helvetica, sans-serif;font-size:11px;color:#4572A7;cursor:default;fill:#4572A7;" text-anchor="start" opacity="1"><tspan x="668">2</tspan></text><text x="668" y="73" style="font-family:&quot;Lucida Grande&quot;, &quot;Lucida Sans Unicode&quot;, Verdana, Arial, Helvetica, sans-serif;font-size:11px;color:#4572A7;cursor:default;fill:#4572A7;" text-anchor="start" opacity="1"><tspan x="668">3</tspan></text><text x="668" y="26" style="font-family:&quot;Lucida Grande&quot;, &quot;Lucida Sans Unicode&quot;, Verdana, Arial, Helvetica, sans-serif;font-size:11px;color:#4572A7;cursor:default;fill:#4572A7;" text-anchor="start" opacity="1"><tspan x="668">4</tspan></text></g></svg>
